<svg id="Ebene_1" data-name="Ebene 1" xmlns="http://www.w3.org/2000/svg" viewBox="0 0 256 320"><defs><style>.cls-1{fill:#477398;}.cls-2{fill:#fff;}</style></defs><polygon class="cls-1" points="256 320 128 255.65 0 320 0 0 256 0 256 320"/><path class="cls-2" d="M220.07,106.25q0,31.34-17.25,48.29t-48.51,17h-40.5V137.36c13.92-1.11,25.19-5.58,33.58-13.32l.24-.24v20h7.54q15.41,0,22.6-8.95T185,107.45q0-17.2-6.8-25.51-5.83-7.12-16.88-8.12a41.77,41.77,0,0,0-13.6-23.9,40.51,40.51,0,0,0-4.84-3.6h14.3q30.13,0,46.53,15.41T220.07,106.25Zm-65.9-20.67q0,21-12.37,32.41t-35.15,11.43H98V158.7q0,25.43-11.13,38.48t-33.4,13.06a82.74,82.74,0,0,1-17.55-1.8V182.16q2.74.51,5.82,1.15a32.65,32.65,0,0,0,6.68.64q8.39,0,12-5a19.75,19.75,0,0,0,2.91-8.09v-125h43.32q23.71,0,35.62,10.36T154.17,85.58Zm-34.25.17q0-12.66-14-12.67H98v28.77h5.3q7.62,0,12.12-4.28C118.43,94.71,119.92,90.78,119.92,85.75Z"/></svg>